<svg xmlns="http://www.w3.org/2000/svg" width="920" height="280" viewBox="0 0 920 280">
  <rect width="920" height="280" rx="14" fill="#0f1419" stroke="#1e293b"/>
  <text x="32" y="36" fill="#64748b" font-family="ui-monospace, monospace" font-size="11" letter-spacing="1">CASE STUDY · 04</text>
  <text x="32" y="68" fill="#f8fafc" font-family="ui-sans-serif, system-ui, sans-serif" font-size="22" font-weight="700">Handshake Dynamo · ML Infrastructure OSS</text>
  <text x="32" y="92" fill="#64748b" font-family="ui-sans-serif, sans-serif" font-size="13">Open-source contributions to handshake-project-dynamo</text>
  <g font-family="ui-monospace, monospace" font-size="10">
    <rect x="32" y="118" width="130" height="36" rx="6" fill="#132028" stroke="#2dd4bf"/>
    <text x="42" y="140" fill="#2dd4bf">Model training</text>
    <rect x="176" y="118" width="120" height="36" rx="6" fill="#111820" stroke="#334155"/>
    <text x="186" y="140" fill="#94a3b8">Data / Postgres</text>
    <rect x="310" y="118" width="130" height="36" rx="6" fill="#111820" stroke="#334155"/>
    <text x="320" y="140" fill="#94a3b8">Release mgmt</text>
    <rect x="454" y="118" width="150" height="36" rx="6" fill="#111820" stroke="#334155"/>
    <text x="464" y="140" fill="#94a3b8">Systems infra ops</text>
    <rect x="618" y="118" width="110" height="36" rx="6" fill="#132028" stroke="#38bdf8"/>
    <text x="628" y="140" fill="#38bdf8">Log report</text>
  </g>
  <line x1="32" y1="178" x2="888" y2="178" stroke="#1e293b"/>
  <text x="32" y="204" fill="#64748b" font-family="ui-sans-serif, sans-serif" font-size="12">Shipped</text>
  <text x="120" y="204" fill="#cbd5e1" font-family="ui-sans-serif, sans-serif" font-size="12">3 open PRs · PostgreSQL XID wraparound DBA task (+508/91) · Harbor log-report tooling</text>
  <text x="32" y="232" fill="#64748b" font-family="ui-sans-serif, sans-serif" font-size="12">Focus</text>
  <text x="120" y="232" fill="#cbd5e1" font-family="ui-sans-serif, sans-serif" font-size="12">ML training pipelines · database reliability · build/release · systems operations</text>
  <text x="32" y="260" fill="#64748b" font-family="ui-sans-serif, sans-serif" font-size="12">Outcome</text>
  <text x="120" y="260" fill="#2dd4bf" font-family="ui-sans-serif, sans-serif" font-size="12" font-weight="600">Production-grade infra engineering visible in public OSS contributions</text>
</svg>
